<svg width="53" height="53" viewBox="0 0 53 53" fill="none" xmlns="http://www.w3.org/2000/svg">
<path d="M34.2292 30.9167H32.4846L31.8662 30.3204C34.0304 27.8029 35.3333 24.5346 35.3333 20.9792C35.3333 13.0512 28.9071 6.625 20.9792 6.625C13.0512 6.625 6.625 13.0512 6.625 20.9792C6.625 28.9071 13.0512 35.3333 20.9792 35.3333C24.5346 35.3333 27.8029 34.0304 30.3204 31.8662L30.9167 32.4846V34.2292L41.9583 45.2487L45.2487 41.9583L34.2292 30.9167ZM20.9792 30.9167C15.4804 30.9167 11.0417 26.4779 11.0417 20.9792C11.0417 15.4804 15.4804 11.0417 20.9792 11.0417C26.4779 11.0417 30.9167 15.4804 30.9167 20.9792C30.9167 26.4779 26.4779 30.9167 20.9792 30.9167Z" fill="black"/>
</svg>
